<svg xmlns="http://www.w3.org/2000/svg" xmlns:xlink="http://www.w3.org/1999/xlink" width="189" height="169" viewBox="0 0 189 169">
  <defs>
    <style>
      .cls-1 {
        clip-path: url(#clip-legend-one);
      }

      .cls-2 {
        fill: #ff0068;
        stroke: #ff0068;
      }

      .cls-3 {
        fill: #756969;
      }

      .cls-3, .cls-6 {
        font-size: 12px;
        font-family: Karla-Regular, Karla;
      }

      .cls-4 {
        fill: #7f96f4;
      }

      .cls-5 {
        fill: #adadad;
      }

      .cls-7 {
        stroke: none;
      }

      .cls-8 {
        fill: none;
      }

      .cls-9 {
        fill: #fff;
      }

      .cls-10 {
        filter: url(#Ellipse_2014);
      }

      .cls-11 {
        filter: url(#Ellipse_2013);
      }
    </style>
    <filter id="Ellipse_2013" x="13" y="32" width="28" height="28" filterUnits="userSpaceOnUse">
      <feOffset dy="3" input="SourceAlpha"/>
      <feGaussianBlur stdDeviation="3" result="blur"/>
      <feFlood flood-opacity="0.051"/>
      <feComposite operator="in" in2="blur"/>
      <feComposite in="SourceGraphic"/>
    </filter>
    <filter id="Ellipse_2014" x="13" y="54" width="28" height="28" filterUnits="userSpaceOnUse">
      <feOffset dy="3" input="SourceAlpha"/>
      <feGaussianBlur stdDeviation="3" result="blur-2"/>
      <feFlood flood-opacity="0.051"/>
      <feComposite operator="in" in2="blur-2"/>
      <feComposite in="SourceGraphic"/>
    </filter>
    <clipPath id="clip-legend-one">
      <rect width="189" height="169"/>
    </clipPath>
  </defs>
  <g id="legend-one" class="cls-1">
    <rect class="cls-9" width="189" height="169"/>
    <g class="cls-11" transform="matrix(1, 0, 0, 1, 0, 0)">
      <g id="Ellipse_2013-2" data-name="Ellipse 2013" class="cls-2" transform="translate(22 38)">
        <circle class="cls-7" cx="5" cy="5" r="5"/>
        <circle class="cls-8" cx="5" cy="5" r="4.5"/>
      </g>
    </g>
    <text id="high_out-of-network_" data-name="high out-of-network %" class="cls-3" transform="translate(47 47)"><tspan x="0" y="0">high out-of-network %</tspan></text>
    <g class="cls-10" transform="matrix(1, 0, 0, 1, 0, 0)">
      <circle id="Ellipse_2014-2" data-name="Ellipse 2014" class="cls-4" cx="5" cy="5" r="5" transform="translate(22 60)"/>
    </g>
    <text id="high_in-network_" data-name="high in-network %" class="cls-3" transform="translate(47 69)"><tspan x="0" y="0">high in-network %</tspan></text>
    <text id="wide_cost_dist." data-name="wide cost dist." class="cls-3" transform="translate(51 121)"><tspan x="0" y="0">wide cost dist.</tspan></text>
    <path id="Path_5726" data-name="Path 5726" class="cls-5" d="M357.637,42.191c-.013-1.5-.039-3.372,1.022-4.31a3.363,3.363,0,0,1,4.118,0c.908.938.578,2.814.412,4.31a15.778,15.778,0,0,0,0,3.951c.166,1.338.5,2.9-.412,3.675a3.917,3.917,0,0,1-4.118,0c-1.061-.779-1.035-2.337-1.022-3.675s.014-2.455,0-3.951" transform="translate(-329.5 74.199)"/>
    <path id="Path_5724" data-name="Path 5724" class="cls-5" d="M.043,8.086C.1,6.068.216,2.832,1.016,1.214S3.3-.4,4.427,1.214,6.316,6.068,6.7,8.086a9.288,9.288,0,0,1,0,4.583c-.382,1.765-1.146,4.5-2.271,5.861s-2.611,1.365-3.411,0S.1,14.434.043,12.669s-.057-2.565,0-4.583" transform="translate(42.031 139.81) rotate(90)"/>
    <text id="wide_freq._dist." data-name="wide freq. dist." class="cls-3" transform="translate(53 146)"><tspan x="0" y="0">wide freq. dist.</tspan></text>
    <g id="Group_8349" data-name="Group 8349" transform="translate(-4 -15)">
      <text id="Color" class="cls-6" transform="translate(24 38)"><tspan x="0" y="0">Color</tspan></text>
    </g>
    <g id="Group_8350" data-name="Group 8350" transform="translate(-4 59)">
      <text id="Shape" class="cls-6" transform="translate(24 38)"><tspan x="0" y="0">Shape</tspan></text>
    </g>
  </g>
</svg>
